HIERARCHY
ROOT Hips
{
  OFFSET 56.2943 94.0457 37.4059
  CHANNELS 6 Xposition Yposition Zposition Zrotation Xrotation Yrotation
  JOINT spine
  {
    OFFSET 0 7.80059 0.448573
    CHANNELS 3 Zrotation Xrotation Yrotation
    JOINT spine1
    {
      OFFSET 0 10.1364 0
      CHANNELS 3 Zrotation Xrotation Yrotation
      JOINT spine2
      {
        OFFSET 0 9.71251 0
        CHANNELS 3 Zrotation Xrotation Yrotation
        JOINT Neck
        {
          OFFSET 0 24.9361 1.18887
          CHANNELS 3 Zrotation Xrotation Yrotation
          JOINT Head
          {
            OFFSET 0 7.53384 0
            CHANNELS 3 Zrotation Xrotation Yrotation
            End Site
            {
              OFFSET 0 18.2361 -6.01402
            }
          }
        }
        JOINT RightShoulder
        {
          OFFSET -4.08965 10.4888 -0.569457
          CHANNELS 3 Zrotation Xrotation Yrotation
          JOINT RightArm
          {
            OFFSET 0 13.757 0
            CHANNELS 3 Zrotation Xrotation Yrotation
            JOINT RightArmRoll
            {
              OFFSET 0 6.94478 0
              CHANNELS 3 Zrotation Xrotation Yrotation
              JOINT RightForeArm
              {
                OFFSET 0 20.2277 0
                CHANNELS 3 Zrotation Xrotation Yrotation
                JOINT RightForeArmRoll
                {
                  OFFSET 0 7.79312 0
                  CHANNELS 3 Zrotation Xrotation Yrotation
                  JOINT RightHand
                  {
                    OFFSET 0 15.6391 0
                    CHANNELS 3 Zrotation Xrotation Yrotation
                    End Site
                    {
                      OFFSET 0 0 0
                    }
                  }
                }
              }
            }
          }
        }
        JOINT LeftShoulder
        {
          OFFSET 4.08965 10.4888 -0.569457
          CHANNELS 3 Zrotation Xrotation Yrotation
          JOINT LeftArm
          {
            OFFSET 0 13.757 0
            CHANNELS 3 Zrotation Xrotation Yrotation
            JOINT LeftArmRoll
            {
              OFFSET 0 6.94478 0
              CHANNELS 3 Zrotation Xrotation Yrotation
              JOINT LeftForeArm
              {
                OFFSET 0 20.2277 0
                CHANNELS 3 Zrotation Xrotation Yrotation
                JOINT LeftForeArmRoll
                {
                  OFFSET 0 7.79313 0
                  CHANNELS 3 Zrotation Xrotation Yrotation
                  JOINT LeftHand
                  {
                    OFFSET 0 15.6391 0
                    CHANNELS 3 Zrotation Xrotation Yrotation
                    End Site
                    {
                      OFFSET 0 0 0
                    }
                  }
                }
              }
            }
          }
        }
      }
    }
  }
  JOINT RightUpLeg
  {
    OFFSET -6.91415 -1.26788 -1.06358
    CHANNELS 3 Zrotation Xrotation Yrotation
    JOINT RightUpLegRoll
    {
      OFFSET 0 18.3378 0
      CHANNELS 3 Zrotation Xrotation Yrotation
      JOINT RightLeg
      {
        OFFSET 0 -22.7085 0
        CHANNELS 3 Zrotation Xrotation Yrotation
        JOINT RightLegRoll
        {
          OFFSET 0 22.7828 0
          CHANNELS 3 Zrotation Xrotation Yrotation
          JOINT RightFoot
          {
            OFFSET 0 18.9629 0
            CHANNELS 3 Zrotation Xrotation Yrotation
            JOINT RightToeBase
            {
              OFFSET 0 15.852 0
              CHANNELS 3 Zrotation Xrotation Yrotation
              End Site
              {
                OFFSET 0.00671906 7.677 -0.884893
              }
            }
          }
        }
      }
    }
  }
  JOINT LeftUpLeg
  {
    OFFSET 6.91415 -1.26788 -1.06358
    CHANNELS 3 Zrotation Xrotation Yrotation
    JOINT LeftUpLegRoll
    {
      OFFSET 0 18.3379 0
      CHANNELS 3 Zrotation Xrotation Yrotation
      JOINT LeftLeg
      {
        OFFSET 0 22.7084 0
        CHANNELS 3 Zrotation Xrotation Yrotation
        JOINT LeftLegRoll
        {
          OFFSET 0 22.9934 0
          CHANNELS 3 Zrotation Xrotation Yrotation
          JOINT LeftFoot
          {
            OFFSET 0 18.7522 0
            CHANNELS 3 Zrotation Xrotation Yrotation
            JOINT LeftToeBase
            {
              OFFSET 0 15.852 0
              CHANNELS 3 Zrotation Xrotation Yrotation
              End Site
              {
                OFFSET -0.030112 7.677 -0.884893
              }
            }
          }
        }
      }
    }
  }
}
MOTION
Frames: 13
Frame Time: 0.00208333
50.888 68.4973 14.4135 -4.40745 23.4088 16.4445 0.506592 3.56353 -0.13894 1.03666 11.128 -0.385788 1.04519 12.7729 -0.404603 -31.5565 -45.3841 -23.0692 17.3551 0.86784 -11.2681 36.0372 -11.4197 -7.47456 151.146 46.4377 -71.7988 -6.33436e-006 1.8162e-005 5.49206e-006 44.4456 0.812196 2.71343 4.31701e-006 -2.36568e-006 -3.06866 8.0292 -4.95099 0.697405 -53.1889 -11.0722 6.95118 -116.749 51.4611 55.1587 -6.05806e-006 -1.7335e-006 -3.31987e-006 -28.8567 34.0409 9.88016 1.45301e-005 1.01513e-005 2.99998 -8.02967 -4.95142 -0.697668 154.547 84.7402 22.0657 180 -1.52576e-005 179.292 -130.685 85.5715 131.56 8.88845e-007 -1.61838e-006 1.96066 -81.782 84.796 90.1883 8.13713 25.2424 -3.47897 -134.957 84.4161 -49.871 4.5067e-006 -1.99009e-005 -1.17627 -18.7243 -84.1813 -15.9223 7.77421e-007 -2.57607e-006 -2.28744 61.334 82.0024 -60.7501 -8.16036 25.7217 3.49561 
50.8844 68.6925 14.483 -4.43013 23.3697 16.4566 0.504699 3.55787 -0.136078 1.03258 11.1167 -0.379688 1.04102 12.7616 -0.398415 -31.4868 -45.4937 -23.0847 17.3138 0.920434 -11.278 36.2309 -11.3795 -7.43293 151.277 46.5311 -71.1298 -6.33436e-006 1.8162e-005 5.49206e-006 44.1652 0.300981 2.58232 4.31701e-006 -2.36568e-006 -3.08191 8.0292 -4.95099 0.697405 -53.3162 -10.9982 6.89817 -116.86 51.3879 54.8664 -6.05806e-006 -1.7335e-006 -3.31987e-006 -28.7076 33.6976 9.73266 1.45301e-005 1.01513e-005 2.99998 -8.02967 -4.95142 -0.697668 155.673 84.4455 20.9594 180 -1.52576e-005 179.293 -134.313 85.3927 135.135 8.88845e-007 -1.61839e-006 1.95049 -81.3853 84.7792 89.7244 8.13713 25.2424 -3.47897 -136.925 84.172 -47.8325 4.5067e-006 -1.99009e-005 -1.16941 -18.3625 -83.8451 -15.5032 7.77421e-007 -2.57607e-006 -2.26792 61.1297 81.9808 -60.5277 -8.15907 25.7031 3.49504 
50.883 68.8799 14.555 -4.45316 23.3288 16.4685 0.503093 3.55227 -0.133267 1.02908 11.1056 -0.373566 1.03743 12.7505 -0.392214 -31.417 -45.6029 -23.0987 17.2726 0.974252 -11.287 36.4267 -11.3389 -7.39115 151.402 46.6295 -70.4559 -6.33436e-006 1.8162e-005 5.49206e-006 43.8471 -0.100862 2.34721 4.31701e-006 -2.36569e-006 -3.09766 8.0292 -4.95099 0.697405 -53.4464 -10.9221 6.84399 -116.961 51.3107 54.5576 -6.05806e-006 -1.7335e-006 -3.31987e-006 -28.5545 33.3456 9.58285 1.45301e-005 1.01513e-005 2.99998 -8.02967 -4.95142 -0.697668 156.685 84.1466 19.9686 180 -1.52576e-005 179.293 -137.699 85.1962 138.466 8.88845e-007 -1.61839e-006 1.94014 -80.9663 84.7613 89.2355 8.13713 25.2424 -3.47897 -138.735 83.9184 -45.9532 4.5067e-006 -1.99009e-005 -1.16259 -18.0384 -83.5067 -15.1217 7.77421e-007 -2.57607e-006 -2.24838 60.9221 81.9584 -60.3012 -8.15777 25.6842 3.49451 
50.8818 69.0816 14.6219 -4.47709 23.2851 16.4803 0.501893 3.54695 -0.13056 1.02641 11.0949 -0.367552 1.03466 12.7399 -0.386137 -31.3496 -45.7133 -23.1131 17.2321 1.03062 -11.2957 36.624 -11.2979 -7.3491 151.52 46.7316 -69.7701 -6.33436e-006 1.8162e-005 5.49206e-006 43.4894 -0.39988 2.00137 4.31701e-006 -2.36569e-006 -3.11624 8.0292 -4.95099 0.697405 -53.5793 -10.8441 6.78876 -117.056 51.2272 54.2312 -6.05806e-006 -1.7335e-006 -3.31987e-006 -28.3939 32.9879 9.43059 1.45301e-005 1.01513e-005 2.99998 -8.02967 -4.95142 -0.697668 157.602 83.8434 19.0735 180 -1.52576e-005 179.293 -140.856 84.9832 141.566 8.88845e-007 -1.61839e-006 1.92968 -80.5243 84.7421 88.7202 8.13713 25.2424 -3.47897 -140.4 83.655 -44.2184 4.5067e-006 -1.99009e-005 -1.15577 -17.7447 -83.1654 -14.7704 7.77421e-007 -2.57607e-006 -2.22878 60.7117 81.9354 -60.0712 -8.15642 25.6646 3.49399 
50.8791 69.2678 14.6942 -4.50174 23.239 16.4921 0.501033 3.54185 -0.127938 1.02442 11.0848 -0.361626 1.0326 12.7297 -0.38016 -31.2832 -45.8246 -23.1275 17.192 1.0892 -11.304 36.8232 -11.2565 -7.30681 151.63 46.8371 -69.0732 -6.33436e-006 1.8162e-005 5.49206e-006 43.0945 -0.606695 1.55912 4.31701e-006 -2.36569e-006 -3.13727 8.0292 -4.95099 0.697405 -53.7142 -10.7644 6.73268 -117.145 51.1379 53.8898 -6.05806e-006 -1.7335e-006 -3.31987e-006 -28.227 32.6252 9.27651 1.45301e-005 1.01513e-005 2.99998 -8.02967 -4.95142 -0.697668 158.438 83.5359 18.262 180 -1.52576e-005 179.293 -143.788 84.755 144.44 8.88845e-007 -1.61839e-006 1.91912 -80.0613 84.7215 88.1808 8.13713 25.2424 -3.47897 -141.931 83.3828 -42.6166 4.5067e-006 -1.99009e-005 -1.14894 -17.4778 -82.8215 -14.4457 7.77421e-007 -2.57607e-006 -2.20912 60.4981 81.9116 -59.8373 -8.15504 25.6444 3.4935 
50.8841 69.4599 14.7544 -4.52695 23.1905 16.5037 0.500448 3.53694 -0.125383 1.023 11.075 -0.355767 1.0311 12.7199 -0.374258 -31.2169 -45.9366 -23.1414 17.1516 1.14966 -11.3119 37.0243 -11.2146 -7.26427 151.733 46.9455 -68.3662 -6.33436e-006 1.8162e-005 5.49206e-006 42.6653 -0.731891 1.03483 4.31701e-006 -2.36569e-006 -3.16035 8.0292 -4.95099 0.697405 -53.8508 -10.6833 6.67594 -117.23 51.0432 53.5355 -6.05806e-006 -1.7335e-006 -3.31987e-006 -28.0547 32.2585 9.12121 1.45301e-005 1.01513e-005 2.99998 -8.02967 -4.95142 -0.697668 159.202 83.2247 17.5236 180 -1.52576e-005 179.294 -146.505 84.513 147.098 8.88845e-007 -1.61839e-006 1.90846 -79.5796 84.6996 87.6199 8.13713 25.2424 -3.47897 -143.341 83.1024 -41.1367 4.5067e-006 -1.99009e-005 -1.14213 -17.2347 -82.475 -14.1447 7.77421e-007 -2.57607e-006 -2.18939 60.2807 81.8871 -59.5989 -8.15363 25.6238 3.49302 
50.8835 69.6473 14.8314 -4.55255 23.1399 16.5151 0.500073 3.53217 -0.122878 1.02201 11.0655 -0.349951 1.03002 12.7104 -0.368409 -31.1495 -46.049 -23.1541 17.1104 1.21164 -11.3195 37.2275 -11.1723 -7.22152 151.829 47.0567 -67.6499 -6.33436e-006 1.8162e-005 5.49206e-006 42.2052 -0.786048 0.442897 4.31701e-006 -2.36569e-006 -3.18509 8.0292 -4.95099 0.697405 -53.9884 -10.6012 6.61873 -117.31 50.9435 53.1707 -6.05806e-006 -1.7335e-006 -3.31987e-006 -27.8781 31.8886 8.96528 1.45301e-005 1.01513e-005 2.99998 -8.02967 -4.95142 -0.697668 159.903 82.9098 16.8495 180 -1.52576e-005 179.294 -149.017 84.2582 149.551 8.88845e-007 -1.61839e-006 1.89769 -79.0809 84.6765 87.0398 8.13713 25.2424 -3.47897 -144.64 82.8148 -39.7683 4.5067e-006 -1.99009e-005 -1.13533 -17.013 -82.1261 -13.8649 7.77421e-007 -2.57607e-006 -2.16962 60.0591 81.8618 -59.3555 -8.1522 25.603 3.49257 
50.8887 69.8798 14.917 -4.57838 23.0873 16.5262 0.499841 3.52749 -0.120404 1.0213 11.0561 -0.344159 1.02924 12.7011 -0.362587 -31.0799 -46.1615 -23.1653 17.0679 1.27482 -11.3267 37.433 -11.1296 -7.17857 151.919 47.1703 -66.9254 -6.33436e-006 1.8162e-005 5.49206e-006 41.7181 -0.779772 -0.202246 4.31701e-006 -2.36569e-006 -3.21109 8.0292 -4.95099 0.697405 -54.1266 -10.5183 6.56127 -117.388 50.8395 52.7977 -6.05806e-006 -1.7335e-006 -3.31987e-006 -27.6981 31.5165 8.80928 1.45301e-005 1.01513e-005 2.99998 -8.02967 -4.95142 -0.697668 160.548 82.5915 16.2321 180 -1.52576e-005 179.294 -151.338 83.9919 151.812 8.88845e-007 -1.61839e-006 1.88681 -78.5672 84.6522 86.4428 8.13713 25.2424 -3.47897 -145.837 82.5205 -38.5016 4.5067e-006 -1.99009e-005 -1.12854 -16.8106 -81.7749 -13.604 7.77421e-007 -2.57607e-006 -2.14979 59.8329 81.8355 -59.1068 -8.15076 25.582 3.49212 
50.8885 70.0627 14.9896 -4.60426 23.0329 16.5369 0.499689 3.52286 -0.117944 1.02076 11.0469 -0.338369 1.02863 12.6918 -0.35677 -31.007 -46.2737 -23.1742 17.0235 1.33884 -11.3335 37.6408 -11.0863 -7.13544 152.003 47.2862 -66.1937 -6.33436e-006 1.8162e-005 5.49206e-006 41.2074 -0.723716 -0.886169 4.31701e-006 -2.36569e-006 -3.23797 8.0292 -4.95099 0.697405 -54.2648 -10.4349 6.50373 -117.462 50.7316 52.4187 -6.05806e-006 -1.7335e-006 -3.31987e-006 -27.5159 31.1431 8.65375 1.45301e-005 1.01513e-005 2.99998 -8.02967 -4.95142 -0.697668 161.143 82.2701 15.6648 180 -1.52576e-005 179.294 -153.481 83.715 153.893 8.88845e-007 -1.61839e-006 1.87581 -78.0407 84.6268 85.8316 8.13713 25.2424 -3.47897 -146.941 82.2201 -37.3274 4.5067e-006 -1.99009e-005 -1.12178 -16.6256 -81.4214 -13.3603 7.77421e-007 -2.57607e-006 -2.12992 59.6016 81.8083 -58.8524 -8.14933 25.5611 3.49169 
50.8855 70.2432 15.0469 -4.63003 22.9769 16.5472 0.499549 3.51823 -0.115479 1.02024 11.0377 -0.332558 1.02803 12.6826 -0.350934 -30.9296 -46.3854 -23.1805 16.9767 1.40338 -11.3399 37.8512 -11.0426 -7.09214 152.081 47.4043 -65.4557 -6.33436e-006 1.8162e-005 5.49206e-006 40.6766 -0.628582 -1.59445 4.31701e-006 -2.36569e-006 -3.26532 8.0292 -4.95099 0.697405 -54.4025 -10.3514 6.44631 -117.535 50.6206 52.0359 -6.05806e-006 -1.7335e-006 -3.31987e-006 -27.3321 30.7692 8.49921 1.45301e-005 1.01513e-005 2.99998 -8.02967 -4.95142 -0.697668 161.695 81.9458 15.1419 180 -1.52576e-005 179.295 -155.458 83.4284 155.808 8.88845e-007 -1.61839e-006 1.8647 -77.5028 84.6003 85.208 8.13713 25.2424 -3.47897 -147.962 81.9142 -36.2372 4.5067e-006 -1.99009e-005 -1.11505 -16.4566 -81.0657 -13.1322 7.77421e-007 -2.57607e-006 -2.11001 59.3648 81.7802 -58.5917 -8.1479 25.5403 3.49128 
50.8939 70.4382 15.1309 -4.65553 22.9195 16.557 0.499358 3.51355 -0.112991 1.01962 11.0283 -0.326707 1.02733 12.6733 -0.345054 -30.8467 -46.4963 -23.1836 16.9269 1.46808 -11.3459 38.0643 -10.9985 -7.0487 152.154 47.5244 -64.7127 -6.33436e-006 1.8162e-005 5.49206e-006 40.1284 -0.505107 -2.31268 4.31701e-006 -2.36569e-006 -3.29276 8.0292 -4.95099 0.697405 -54.5392 -10.2679 6.38921 -117.607 50.5069 51.6515 -6.05806e-006 -1.7335e-006 -3.31987e-006 -27.1479 30.3959 8.34618 1.45301e-005 1.01513e-005 2.99998 -8.02967 -4.95142 -0.697668 162.207 81.6186 14.6585 180 -1.52576e-005 179.295 -157.282 83.1331 157.571 8.88845e-007 -1.61838e-006 1.85346 -76.9556 84.5729 84.5744 8.13713 25.2424 -3.47897 -148.907 81.6034 -35.2235 4.5067e-006 -1.99009e-005 -1.10835 -16.3022 -80.7081 -12.9183 7.77421e-007 -2.57607e-006 -2.09007 59.1221 81.7509 -58.3243 -8.1465 25.5198 3.49088 
50.8848 70.6548 15.1971 -4.68059 22.8609 16.5661 0.499048 3.50879 -0.110462 1.01876 11.0188 -0.320792 1.02639 12.6638 -0.339107 -30.757 -46.606 -23.1829 16.8737 1.53261 -11.3514 38.2802 -10.9538 -7.00512 152.222 47.6467 -63.9657 -6.33436e-006 1.8162e-005 5.49206e-006 39.565 -0.36405 -3.02647 4.31701e-006 -2.36569e-006 -3.3199 8.0292 -4.95099 0.697405 -54.6744 -10.1848 6.33262 -117.678 50.3915 51.2675 -6.05806e-006 -1.7335e-006 -3.31987e-006 -26.964 30.0239 8.19513 1.45301e-005 1.01513e-005 2.99998 -8.02967 -4.95142 -0.697668 162.684 81.2889 14.2103 180 -1.52576e-005 179.295 -158.965 82.8299 159.192 8.88845e-007 -1.61838e-006 1.8421 -76.4005 84.5446 83.9327 8.13713 25.2424 -3.47897 -149.783 81.2881 -34.279 4.5067e-006 -1.99009e-005 -1.10168 -16.1613 -80.3485 -12.7173 7.77421e-007 -2.57607e-006 -2.0701 58.8732 81.7206 -58.05 -8.14513 25.4998 3.49049 
50.8847 70.8429 15.2702 -4.70505 22.8012 16.5746 0.498556 3.5039 -0.107875 1.01752 11.0091 -0.314793 1.02507 12.654 -0.333069 -30.6593 -46.7144 -23.1779 16.8164 1.59664 -11.3566 38.4992 -10.9086 -6.96143 152.286 47.7711 -63.2158 -6.33436e-006 1.8162e-005 5.49206e-006 38.9878 -0.216164 -3.72142 4.31701e-006 -2.36569e-006 -3.34634 8.0292 -4.95099 0.697405 -54.8075 -10.1025 6.27673 -117.749 50.2749 50.8861 -6.05806e-006 -1.7335e-006 -3.31987e-006 -26.7814 29.6544 8.04656 1.45301e-005 1.01513e-005 2.99998 -8.02967 -4.95142 -0.697668 163.129 80.9567 13.7935 180 -1.52576e-005 179.295 -160.518 82.5195 160.683 8.88845e-007 -1.61838e-006 1.83061 -75.8393 84.5154 83.2852 8.13713 25.2424 -3.47897 -150.597 80.9687 -33.3975 4.5067e-006 -1.99009e-005 -1.09506 -16.0328 -79.9872 -12.5283 7.77421e-007 -2.57607e-006 -2.0501 58.6177 81.6891 -57.7682 -8.14381 25.4803 3.49011 
